<svg xmlns="http://www.w3.org/2000/svg" height="20" width="20"><path d="m15.042 7.688-2.73-2.73 1.021-1.02q.417-.396.969-.396t.948.396l.812.833q.396.375.396.937 0 .563-.396.959ZM3.354 16.625v-2.729l3.438-3.417-4.417-4.396 3.542-3.541 4.416 4.416 1.979-2 2.73 2.73-2 1.979 4.416 4.416-3.541 3.542L9.5 13.208l-3.417 3.417Zm4.208-6.896 2-2-1.416-1.458-.938.937-.77-.75.937-.937-1.458-1.459-2.021 2Zm6.355 6.354 2.021-2-1.459-1.479-.958.938-.729-.75.916-.959-1.437-1.416-2 2.021Zm-9.479-.541h1.208L13.5 7.688l-1.188-1.209-7.874 7.875Z"/></svg>