<svg width="24" height="24" viewBox="0 0 24 24" fill="none" xmlns="http://www.w3.org/2000/svg">
<path d="M10 19H7C5.89543 19 5 18.1046 5 17V10.9199C5 10.336 5.25513 9.78132 5.69842 9.40136L10.6984 5.11564C11.4474 4.47366 12.5526 4.47366 13.3016 5.11564L18.3016 9.40136C18.7449 9.78132 19 10.336 19 10.9199V17C19 18.1046 18.1046 19 17 19H14M10 19V14C10 13.4477 10.4477 13 11 13H13C13.5523 13 14 13.4477 14 14V19M10 19H14" stroke="#212121" stroke-width="1.5" stroke-linecap="round" stroke-linejoin="round"/>
</svg>
