<svg width="24" height="24" viewBox="0 0 24 24" fill="none" xmlns="http://www.w3.org/2000/svg">
<g clip-path="url(#clip0_2323_2491)">
<path d="M12 4.85254L18.75 9.76504V19.5H5.25V9.76504L12 4.85254ZM12 3.35254C11.6925 3.35254 11.3775 3.45004 11.115 3.63754L4.365 8.55004C3.975 8.83504 3.75 9.28504 3.75 9.76504V20.25C3.75 20.6625 4.0875 21 4.5 21H19.5C19.9125 21 20.25 20.6625 20.25 20.25V9.76504C20.25 9.28504 20.0175 8.83504 19.635 8.55004L12.885 3.63754C12.6225 3.44254 12.315 3.35254 12 3.35254Z" fill="black"/>
<path d="M13 15C13 14.4477 12.5523 14 12 14C11.4477 14 11 14.4477 11 15H13ZM11 15V21H13V15H11Z" fill="black"/>
</g>
<defs>
<clipPath id="clip0_2323_2491">
<rect width="24" height="24" fill="white"/>
</clipPath>
</defs>
</svg>
